<?xml version="1.0" ?><!DOCTYPE svg  PUBLIC '-//W3C//DTD SVG 1.1//EN'  'http://www.w3.org/Graphics/SVG/1.1/DTD/svg11.dtd' [
	<!ENTITY stroke_color "#000">
	<!ENTITY fill_color "#eee">
]><svg height="55px" viewBox="0 0 55 55" width="55px" xmlns="http://www.w3.org/2000/svg" xmlns:xlink="http://www.w3.org/1999/xlink" stroke-linecap="round" stroke-linejoin="round" stroke-width="3.5" stroke="&stroke_color;" fill="&fill_color;">
 <g>
  <path d="M 27.3453 5.20781 L 6.82344 6.13594 L 7.71719 12.7359 L 7.71719 24.0281 L 13.6297 24.0281 L 13.7156 23.9078 L 14.6094 23.6328 L 15.5203 23.4438 L 15.0734 22.825 L 12.5469 21.8281 L 11.3609 21.3641 L 12.4437 20.2812 L 11.275 19.7484 L 11.3609 17.3078 L 11.3609 16.225 L 16.4484 16.2766 L 16.4828 12.5469 L 13.4062 12.4437 L 13.5437 9.52187 L 16.3109 9.79687 L 16.3281 6.99531 L 19.0437 6.92656 L 18.9922 9.72812 L 22.0344 9.52187 L 21.9312 12.6328 L 18.9234 12.5125 L 19.0266 16.3109 L 19.6797 16.3109 L 19.6797 16.3625 L 23.925 16.3109 L 23.925 17.3938 L 24.0109 19.8344 L 22.8422 20.3844 L 23.925 21.4672 L 22.7391 21.9141 L 20.2125 22.9109 L 19.7656 23.5469 L 20.2984 23.65 L 26.4516 23.0828 L 25.7297 13.6812 L 27.3453 5.20781 Z " fill="&stroke_color;" stroke-width="2.25" />
  <path d="M 45.3922 21.8453 L 41.1812 22.0516 L 38.9641 22.9281 L 38.5172 23.5641 L 39.4109 23.7359 L 40.3219 24.0109 L 41.4906 25.5406 L 42.2125 27.4312 L 42.1266 28.3422 L 40.9578 29.15 L 42.4875 29.975 L 42.4875 30.5938 L 40.5969 30.9547 L 39.1531 32.1406 L 38.8781 33.3094 L 38.9641 34.8391 L 39.325 36.8328 L 39.325 37.6406 L 40.0469 37.7266 L 41.0438 38.0875 L 41.4906 38.9125 L 41.2328 39.3594 L 40.7172 39.8406 L 44.5844 39.4453 L 43.9312 30.1812 L 45.3922 21.8453 Z " fill="&stroke_color;" stroke-width="2.25" />
  <path d="M 32.8797 22.4641 L 26.8641 22.7734 L 27.6891 29.2531 L 27.6891 34.7188 L 30.9891 36.6094 L 31.5562 38.3281 L 31.7453 38.0016 L 32.7422 37.6406 L 33.4641 37.5547 L 33.4641 36.7469 L 33.825 34.7531 L 33.9109 33.2234 L 33.6359 32.0375 L 32.1922 30.8687 L 30.3016 30.5078 L 30.3016 29.8719 L 31.8313 29.0641 L 30.6625 28.2563 L 30.5766 27.3453 L 31.2984 25.4547 L 32.4672 23.925 L 33.3609 23.65 L 34.2719 23.4609 L 33.825 22.8422 L 32.8797 22.4641 Z M 31.8484 39.5484 L 31.6766 40.3734 L 33.4297 40.3734 L 32.5531 40.1672 L 31.8484 39.5484 Z " fill="&stroke_color;" stroke-width="2.25" />
  <path d="M 9.96394 51.0893 L 9.8437 48.6023 L 10.4163 47.9813 L 10.4163 47.461 L 10.0913 46.84 L 10.1687 45.3462 L 10.6639 43.9684 L 11.8864 42.8228 L 14.0166 41.8298 L 15.1636 40.9402 L 14.1714 39.3491 L 13.2637 38.1962 L 14.1612 37.8437 L 14.8112 37.7598 L 15.1719 37.0912 L 15.4368 35.1442 L 15.5743 33.7106 L 15.2064 32.0715 L 14.0869 30.6897 L 12.0239 30.2772 L 12.3846 29.9567 L 13.3411 29.4685 L 12.89 28.4392 L 12.2114 27.7901 L 12.8613 25.9438 L 13.9136 24.4501 L 14.7184 24.1815 L 15.5385 23.9969 L 15.9778 23.3927 L 14.8453 22.1787 L 12.515 21.1845 L 13.0691 20.1271 L 12.137 19.4866 L 11.7936 18.005 L 11.7936 16.9476 L 19.2835 17.0315 L 19.2835 17.0819 L 23.1058 17.0315 L 23.1058 18.0889 L 23.4838 19.4502 L 22.4315 20.1076 L 22.8654 21.2251 L 20.9559 22.1424 L 19.4626 23.2962 L 20.1656 24.2654 L 20.9858 24.534 L 22.0381 26.0278 L 22.688 27.874 L 21.7988 29.2518 L 22.9356 29.9973 L 21.9737 30.2408 L 20.6322 31.3749 L 19.9334 32.4728 L 19.6858 33.6141 L 19.7632 35.1079 L 20.0882 37.0549 L 20.0882 37.8437 L 20.7382 37.9276 L 21.6357 38.2801 L 20.8483 39.8706 L 19.8406 40.6634 L 21.0631 41.553 L 23.013 42.4258 L 24.2355 43.7517 L 24.7307 45.4301 L 24.8081 46.9239 L 24.4831 47.5449 L 24.4831 48.082 L 25.0557 48.6862 L 25.2361 51.4739 L 9.96394 51.0893 Z " stroke="none" stroke-width="2.25" />
  <path d="M 21.5669 16.7938 L 23.4306 16.9741 L 23.3705 19.2586 L 22.1681 19.9801 L 22.5288 21.3628 L 19.7033 22.8056 L 19.3426 23.7074 L 21.086 24.4889 L 22.2282 25.8717 L 23.0098 27.6151 L 22.2282 28.6972 L 21.7473 29.1782 L 21.6872 30.621 L 20.2443 31.4627 L 19.7033 33.2663 L 19.6431 36.2722 L 20.1842 37.8353 L 21.6271 38.7972 L 21.2663 39.5787 L 19.8235 40.1799 L 20.1241 41.2019 L 21.9276 42.284 L 23.6711 43.1257 L 25.2342 45.29 L 25.1139 46.7929 L 24.8735 47.9352 L 25.1139 49.5584 L 25.2943 51.1816 L 21.9276 51.3619 L 22.2884 49.3179 L 22.1681 48.2358 L 22.7092 46.4322 L 22.0479 45.0495 L 20.1842 43.7269 L 18.7414 42.4043 C 18.7414 42.4043 18.6211 41.2019 18.561 40.9013 C 18.5009 40.6007 18.4408 40.0597 18.4408 40.0597 L 19.1021 39.3984 L 18.6211 38.6168 C 18.6211 38.6168 18.2604 38.3763 18.3807 38.0156 C 18.5009 37.6549 18.3807 35.3103 18.3807 35.3103 L 18.2604 31.9436 L 18.8616 30.6812 L 19.4628 30.08 L 19.8235 28.9978 L 20.9658 27.9157 L 20.6652 26.2324 L 19.6431 25.2104 L 18.7414 24.4288 L 18.0199 23.9479 L 18.0801 23.1663 L 18.5009 22.3247 L 19.8836 21.3027 L 20.1842 19.9801 L 21.3866 19.0182 L 21.5669 16.7938 Z " stroke="none" stroke-width="2.25" />
  <path d="M 12.0065 51.8378 L 9.18778 51.8034 L 9.18778 48.6409 L 9.82372 48.0049 L 9.82372 47.4721 L 9.46278 46.8362 L 9.54872 45.3065 L 10.0987 43.5878 L 11.4565 42.2299 L 13.6222 41.3362 L 14.9628 40.4253 L 13.794 40.1503 L 12.7972 39.2565 L 12.5393 38.8096 L 12.9862 37.9846 L 13.9831 37.6237 L 14.705 37.5378 L 14.705 36.7299 L 15.0659 34.7362 L 15.1518 33.2065 L 14.8768 32.0206 L 13.4331 30.8518 L 11.5425 30.4909 L 11.5425 29.8549 L 13.0722 29.0471 L 11.9034 28.2393 L 11.8175 27.3284 L 12.5393 25.4378 L 13.7081 23.9081 L 14.6018 23.6331 L 15.5128 23.444 L 15.0659 22.8253 L 12.5393 21.8284 L 11.3534 21.3643 L 12.4362 20.2815 L 11.2675 19.7487 L 11.3534 17.3081 L 11.3534 16.2253 L 19.6722 16.3112 L 19.6722 16.3628 L 23.9175 16.3112 L 23.9175 17.394 L 24.0034 19.8346 L 22.8347 20.3846 L 23.9175 21.4674 L 22.7315 21.9143 L 20.205 22.9112 L 19.7581 23.5471 L 20.6518 23.719 L 21.5628 23.994 L 22.7315 25.5237 L 23.4534 27.4143 L 23.3675 28.3253 L 22.1987 29.1331 L 23.7284 29.9581 L 23.7284 30.5768 L 21.8378 30.9378 L 20.394 32.1237 L 20.119 33.2924 L 20.205 34.8221 L 20.5659 36.8159 L 20.5659 37.6237 L 21.2878 37.7096 L 22.2847 38.0706 L 22.7315 38.8956 L 22.4737 39.3424 L 21.4768 40.2534 L 20.2909 40.5112 L 21.6487 41.4221 L 23.8143 42.3159 L 25.1722 43.6737 L 25.7222 45.3924 L 25.8081 46.9221 L 25.4472 47.5581 L 25.4472 48.1081 L 26.0831 48.7268 L 26.0831 51.8893 L 23.2128 51.9237 L 20.8237 51.9581 L 12.0065 51.8378 Z M 19.3456 50.9612 L 21.2878 50.9096 L 24.7253 50.7206 L 24.7253 50.3596 L 24.5362 48.9159 L 24.0034 48.3659 L 24.2784 47.1112 L 24.8112 46.3893 L 24.4503 44.9456 L 23.4534 43.6737 L 22.1128 42.6768 L 20.205 42.144 L 19.3972 41.1471 C 19.3972 41.1471 19.3972 40.5158 19.3972 40.0643 C 19.3972 39.6128 20.119 39.6174 20.119 39.6174 L 20.755 38.8096 L 19.844 38.6206 L 19.3112 37.8987 L 19.2081 35.6471 L 19.1222 33.5674 L 19.3972 32.0206 L 20.0331 31.1268 L 21.4768 30.1299 L 21.3737 28.8753 L 21.8378 28.4112 L 22.4737 27.6893 L 22.0097 25.9706 L 20.8409 24.8018 L 19.0362 24.0799 L 19.1222 22.9112 L 19.844 22.1893 L 22.1128 21.3643 L 21.6487 19.7487 L 22.8347 19.0268 L 22.9206 17.3081 L 15.5987 17.3081 L 12.3503 17.2221 L 12.4362 18.9409 L 13.6222 19.6628 L 13.1581 21.2784 L 15.4268 22.1034 L 16.1487 22.8253 L 16.2347 23.994 L 14.43 24.7159 L 13.2612 25.8846 L 12.7972 27.6034 L 13.4331 28.3253 L 13.88 28.7721 L 13.794 30.044 L 15.2378 31.0409 L 15.8737 31.9346 L 16.1487 33.4815 L 16.0456 35.544 L 15.9597 37.8128 L 15.4268 38.5346 L 14.5159 38.7065 L 15.1518 39.5315 C 15.1518 39.5315 15.8737 39.5269 15.8737 39.9784 C 15.8737 40.4299 15.8737 41.0612 15.8737 41.0612 L 15.0659 42.0581 L 13.1581 42.5909 L 11.8175 43.5878 L 10.8206 44.8596 L 10.4597 46.3034 L 10.9925 47.0253 L 11.2675 48.2799 L 10.7175 48.8299 L 10.5456 50.2737 L 10.5456 50.6346 L 13.9831 50.8065 L 19.3456 50.9612 Z " fill="&stroke_color;" stroke="none" stroke-width="2.25" />
  <path d="M 15.7329 16.7697 L 16.2747 12.3526 L 12.997 12.7138 L 13.0739 9.15269 L 16.2747 9.60421 L 15.7195 6.38467 L 19.4755 6.314 L 19.1778 9.49428 L 22.1946 9.15269 L 22.0007 12.7531 L 18.9705 12.4625 L 19.7196 16.6911 L 15.7329 16.7697 Z " stroke="none" stroke-width="2.25" />
  <path d="M 12.489 21.3027 L 23.0098 21.2425 L 19.4027 23.1062 L 15.7956 23.0461 L 12.489 21.3027 Z " fill="&stroke_color;" stroke="none" stroke-width="2.25" />
  <path d="M 12.0381 18.9881 L 23.2803 18.928 L 22.3115 20.0101 L 13.2869 20.0101 L 12.0381 18.9881 Z " fill="&stroke_color;" stroke="none" stroke-width="2.25" />
  <path d="M 12.3989 27.7955 L 22.6791 27.7354 L 21.7933 28.8175 L 13.5408 28.8175 L 12.3989 27.7955 Z " fill="&stroke_color;" stroke="none" stroke-width="2.25" />
  <path d="M 13.6613 30.1368 L 21.5369 29.9597 L 19.5957 33.2061 L 15.6784 33.2663 L 13.6613 30.1368 Z " fill="&stroke_color;" stroke="none" stroke-width="2.25" />
  <path d="M 14.6834 39.2781 L 20.5149 39.218 L 20.0123 40.3001 L 15.3311 40.3001 L 14.6834 39.2781 Z " fill="&stroke_color;" stroke="none" stroke-width="2.25" />
  <path d="M 9.99411 46.312 L 25.5648 46.2519 L 24.5838 48.1757 L 10.8219 48.1757 L 9.99411 46.312 Z " fill="&stroke_color;" stroke="none" stroke-width="2.25" />
  <path d="M 28.7173 51.1071 L 28.597 48.62 L 29.1696 47.999 L 29.1696 47.4787 L 28.8446 46.8577 L 28.922 45.3639 L 29.4172 43.9861 L 30.6397 42.8405 L 32.77 41.8475 L 33.9169 40.958 L 32.9247 39.3668 L 32.017 38.2139 L 32.9146 37.8615 L 33.5645 37.7775 L 33.9252 37.1089 L 34.1901 35.162 L 34.3276 33.7283 L 33.9598 32.0893 L 32.8402 30.7075 L 30.7772 30.2949 L 31.1379 29.9745 L 32.0944 29.4862 L 31.6433 28.4569 L 30.9647 27.8078 L 31.6147 25.9616 L 32.667 24.4678 L 33.4717 24.1993 L 34.2919 24.0146 L 34.7312 23.4104 L 33.5986 22.1965 L 31.2683 21.2022 L 31.8224 20.1448 L 30.8903 19.5043 L 30.5469 18.0227 L 30.5469 16.9654 L 38.0368 17.0493 L 38.0368 17.0996 L 41.8592 17.0493 L 41.8592 18.1067 L 42.2371 19.468 L 41.1848 20.1253 L 41.6187 21.2428 L 39.7093 22.1601 L 38.216 23.314 L 38.9189 24.2832 L 39.7391 24.5517 L 40.7914 26.0455 L 41.4413 27.8917 L 40.5521 29.2696 L 41.6889 30.0151 L 40.727 30.2586 L 39.3855 31.3926 L 38.6868 32.4906 L 38.4392 33.6319 L 38.5166 35.1257 L 38.8415 37.0726 L 38.8415 37.8615 L 39.4915 37.9454 L 40.389 38.2978 L 39.6016 39.8883 L 38.5939 40.6812 L 39.8165 41.5707 L 41.7663 42.4435 L 42.9888 43.7694 L 43.484 45.4478 L 43.5614 46.9416 L 43.2364 47.5626 L 43.2364 48.0997 L 43.809 48.7039 L 43.9894 51.4916 L 28.7173 51.1071 Z " stroke="none" stroke-width="2.25" />
  <path d="M 40.3203 16.8115 L 42.1839 16.9919 L 42.1238 19.2764 L 40.9215 19.9978 L 41.2822 21.3805 L 38.4566 22.8234 L 38.0959 23.7251 L 39.8393 24.5067 L 40.9816 25.8894 L 41.7631 27.6328 L 40.9816 28.715 L 40.5006 29.1959 L 40.4405 30.6388 L 38.9977 31.4804 L 38.4566 33.284 L 38.3965 36.2899 L 38.9375 37.853 L 40.3804 38.8149 L 40.0197 39.5964 L 38.5768 40.1976 L 38.8774 41.2196 L 40.681 42.3018 L 42.4244 43.1434 L 43.9875 45.3077 L 43.8673 46.8107 L 43.6268 47.9529 L 43.8673 49.5761 L 44.0476 51.1993 L 40.681 51.3797 L 41.0417 49.3356 L 40.9215 48.2535 L 41.4625 46.45 L 40.8012 45.0672 L 38.9375 43.7446 L 37.4947 42.422 C 37.4947 42.422 37.3745 41.2196 37.3143 40.9191 C 37.2542 40.6185 37.1941 40.0774 37.1941 40.0774 L 37.8554 39.4161 L 37.3745 38.6345 C 37.3745 38.6345 37.0137 38.3941 37.134 38.0334 C 37.2542 37.6726 37.134 35.328 37.134 35.328 L 37.0137 31.9614 L 37.6149 30.6989 L 38.2161 30.0977 L 38.5768 29.0156 L 39.7191 27.9334 L 39.4185 26.2501 L 38.3965 25.2281 L 37.4947 24.4466 L 36.7733 23.9656 L 36.8334 23.1841 L 37.2542 22.3424 L 38.6369 21.3204 L 38.9375 19.9978 L 40.1399 19.0359 L 40.3203 16.8115 Z " stroke="none" stroke-width="2.25" />
  <path d="M 30.7599 51.8555 L 27.9411 51.8211 L 27.9411 48.6586 L 28.577 48.0227 L 28.577 47.4899 L 28.2161 46.8539 L 28.302 45.3242 L 28.852 43.6055 L 30.2099 42.2477 L 32.3755 41.3539 L 33.7161 40.443 L 32.5474 40.168 L 31.5505 39.2742 L 31.2927 38.8274 L 31.7395 38.0024 L 32.7364 37.6414 L 33.4583 37.5555 L 33.4583 36.7477 L 33.8192 34.7539 L 33.9052 33.2242 L 33.6302 32.0383 L 32.1864 30.8696 L 30.2958 30.5086 L 30.2958 29.8727 L 31.8255 29.0649 L 30.6567 28.2571 L 30.5708 27.3461 L 31.2927 25.4555 L 32.4614 23.9258 L 33.3552 23.6508 L 34.2661 23.4617 L 33.8192 22.843 L 31.2927 21.8461 L 30.1067 21.3821 L 31.1895 20.2992 L 30.0208 19.7664 L 30.1067 17.3258 L 30.1067 16.243 L 38.4255 16.3289 L 38.4255 16.3805 L 42.6708 16.3289 L 42.6708 17.4117 L 42.7567 19.8524 L 41.588 20.4024 L 42.6708 21.4852 L 41.4849 21.9321 L 38.9583 22.9289 L 38.5114 23.5649 L 39.4052 23.7367 L 40.3161 24.0117 L 41.4849 25.5414 L 42.2067 27.4321 L 42.1208 28.343 L 40.952 29.1508 L 42.4817 29.9758 L 42.4817 30.5946 L 40.5911 30.9555 L 39.1474 32.1414 L 38.8724 33.3102 L 38.9583 34.8399 L 39.3192 36.8336 L 39.3192 37.6414 L 40.0411 37.7274 L 41.038 38.0883 L 41.4849 38.9133 L 41.227 39.3602 L 40.2302 40.2711 L 39.0442 40.5289 L 40.402 41.4399 L 42.5677 42.3336 L 43.9255 43.6914 L 44.4755 45.4102 L 44.5614 46.9399 L 44.2005 47.5758 L 44.2005 48.1258 L 44.8364 48.7446 L 44.8364 51.9071 L 41.9661 51.9414 L 39.577 51.9758 L 30.7599 51.8555 Z M 38.0989 50.9789 L 40.0411 50.9274 L 43.4786 50.7383 L 43.4786 50.3774 L 43.2895 48.9336 L 42.7567 48.3836 L 43.0317 47.1289 L 43.5645 46.4071 L 43.2036 44.9633 L 42.2067 43.6914 L 40.8661 42.6946 L 38.9583 42.1617 L 38.1505 41.1649 C 38.1505 41.1649 38.1505 40.5336 38.1505 40.0821 C 38.1505 39.6305 38.8724 39.6352 38.8724 39.6352 L 39.5083 38.8274 L 38.5974 38.6383 L 38.0645 37.9164 L 37.9614 35.6649 L 37.8755 33.5852 L 38.1505 32.0383 L 38.7864 31.1446 L 40.2302 30.1477 L 40.127 28.893 L 40.5911 28.4289 L 41.227 27.7071 L 40.763 25.9883 L 39.5942 24.8196 L 37.7895 24.0977 L 37.8755 22.9289 L 38.5974 22.2071 L 40.8661 21.3821 L 40.402 19.7664 L 41.588 19.0446 L 41.6739 17.3258 L 34.352 17.3258 L 31.1036 17.2399 L 31.1895 18.9586 L 32.3755 19.6805 L 31.9114 21.2961 L 34.1802 22.1211 L 34.902 22.843 L 34.988 24.0117 L 33.1833 24.7336 L 32.0145 25.9024 L 31.5505 27.6211 L 32.1864 28.343 L 32.6333 28.7899 L 32.5474 30.0617 L 33.9911 31.0586 L 34.627 31.9524 L 34.902 33.4992 L 34.7989 35.5617 L 34.713 37.8305 L 34.1802 38.5524 L 33.2692 38.7242 L 33.9052 39.5492 C 33.9052 39.5492 34.627 39.5446 34.627 39.9961 C 34.627 40.4476 34.627 41.0789 34.627 41.0789 L 33.8192 42.0758 L 31.9114 42.6086 L 30.5708 43.6055 L 29.5739 44.8774 L 29.213 46.3211 L 29.7458 47.043 L 30.0208 48.2977 L 29.4708 48.8477 L 29.2989 50.2914 L 29.2989 50.6524 L 32.7364 50.8242 L 38.0989 50.9789 Z " fill="&stroke_color;" stroke="none" stroke-width="2.25" />
  <path d="M 34.4862 16.7874 L 35.028 12.3703 L 31.7503 12.7316 L 31.8273 9.17043 L 35.028 9.62195 L 34.4728 6.40241 L 38.2288 6.33174 L 37.9311 9.51202 L 40.948 9.17043 L 40.754 12.7708 L 37.7238 12.4803 L 38.473 16.7089 L 34.4862 16.7874 Z " fill="&stroke_color;" stroke="none" stroke-width="2.25" />
  <path d="M 37.7953 6.66875 L 35.0797 6.7375 L 34.8219 6.7375 L 34.8219 7.0125 L 34.7875 9.50469 L 32.3297 9.28125 L 32.0375 9.24687 L 32.0203 9.53906 L 31.8828 12.4437 L 31.8656 12.7359 L 32.1406 12.7359 L 34.9594 12.8219 L 34.9422 16.6375 L 34.925 16.9125 L 35.2172 16.9125 L 37.7953 16.9125 L 38.0703 16.9125 L 38.0703 16.6203 L 37.95 12.8219 L 40.6828 12.925 L 40.9578 12.925 L 40.9578 12.65 L 41.0609 9.55625 L 41.0609 9.24687 L 40.7688 9.28125 L 38.0188 9.45312 L 38.0703 6.96094 L 38.0703 6.66875 L 37.7953 6.66875 Z M 37.5203 7.21875 L 37.4688 9.74531 L 37.4516 10.0375 L 37.7609 10.0203 L 40.4937 9.83125 L 40.425 12.3578 L 37.6922 12.2547 L 37.4 12.2547 L 37.4 12.5469 L 37.5203 16.3625 L 35.4922 16.3625 L 35.5094 12.5641 L 35.5266 12.2891 L 35.2516 12.2891 L 32.45 12.2031 L 32.5531 9.84844 L 35.0281 10.0891 L 35.3375 10.1062 L 35.3375 9.81406 L 35.3719 7.2875 L 37.5203 7.21875 Z " fill="&stroke_color;" stroke="none" stroke-width="2.25" />
  <path d="M 37.5203 7.21875 L 37.4688 9.74531 L 37.4516 10.0375 L 37.7609 10.0203 L 40.4937 9.83125 L 40.425 12.3578 L 37.6922 12.2547 L 37.4 12.2547 L 37.4 12.5469 L 37.5203 16.3625 L 35.4922 16.3625 L 35.5094 12.5641 L 35.5266 12.2891 L 35.2516 12.2891 L 32.45 12.2031 L 32.5531 9.84844 L 35.0281 10.0891 L 35.3375 10.1062 L 35.3375 9.81406 L 35.3719 7.2875 L 37.5203 7.21875 Z " stroke="none" stroke-width="2.25" />
  <path d="M 31.2424 21.3204 L 41.7631 21.2603 L 38.156 23.124 L 34.5489 23.0638 L 31.2424 21.3204 Z " fill="&stroke_color;" stroke="none" stroke-width="2.25" />
  <path d="M 30.7915 19.0058 L 42.0336 18.9457 L 41.0649 20.0279 L 32.0402 20.0279 L 30.7915 19.0058 Z " fill="&stroke_color;" stroke="none" stroke-width="2.25" />
  <path d="M 31.1522 27.8132 L 41.4325 27.7531 L 40.5466 28.8352 L 32.2941 28.8352 L 31.1522 27.8132 Z " fill="&stroke_color;" stroke="none" stroke-width="2.25" />
  <path d="M 32.4147 30.1545 L 40.2902 29.9775 L 38.3491 33.2239 L 34.4317 33.284 L 32.4147 30.1545 Z " fill="&stroke_color;" stroke="none" stroke-width="2.25" />
  <path d="M 33.4367 39.2958 L 39.2682 39.2357 L 38.7657 40.3179 L 34.0844 40.3179 L 33.4367 39.2958 Z " fill="&stroke_color;" stroke="none" stroke-width="2.25" />
  <path d="M 28.7474 46.3297 L 44.3181 46.2696 L 43.3371 48.1934 L 29.5752 48.1934 L 28.7474 46.3297 Z " fill="&stroke_color;" stroke="none" stroke-width="2.25" />
  <path d="M 32.1406 3.59219 L 14.9875 4.65781 L 5.79219 4.29687 L 7.02969 14.6437 L 5.96406 25.5234 L 6.66875 33.5672 L 6.23906 42.8484 L 10.6047 43.0891 L 11.4641 42.2297 L 13.6297 41.3359 L 14.9703 40.425 L 14.3516 40.2875 L 8.28437 39.8922 L 8.76562 27.4656 L 8.12969 18.3734 L 8.67969 7.51094 L 21.4156 6.4625 L 35.6297 6.34219 L 44.5672 7.06406 L 44.6703 15.95 L 44.4125 24.9219 L 43.7938 31.6938 L 44.1719 39.5141 L 40.8719 39.6859 L 40.2359 40.2703 L 39.05 40.5281 L 40.4078 41.4391 L 42.5734 42.3328 L 43.7594 43.5188 L 47.0766 43.2953 L 45.5813 29.15 L 47.2656 17.7375 L 46.6469 4.82969 L 32.1406 3.59219 Z " fill="&stroke_color;" stroke="none" stroke-width="2.25" />
  <path d="M 32.5187 40.1328 L 24.7844 40.4078 L 20.9 40.3734 L 20.2984 40.5109 L 21.6562 41.4219 L 23.8219 42.3156 L 24.475 42.9688 L 28.6859 42.5047 L 29.8203 42.6422 L 30.2156 42.2469 L 32.3813 41.3531 L 33.7219 40.4422 L 32.5531 40.1672 L 32.5187 40.1328 Z " fill="&stroke_color;" stroke="none" stroke-width="2.25" />
  <path d="M 27.4191 34.8076 L 32.0527 34.8076 L 32.0527 41.1842 L 27.4191 41.1842 Z " fill="&stroke_color;" stroke="none" stroke-width="2.25" />
 </g>
</svg>